<?xml version="1.0" encoding="UTF-8" standalone="no"?>
<svg
   xmlns:dc="http://purl.org/dc/elements/1.1/"
   xmlns:cc="http://creativecommons.org/ns#"
   xmlns:rdf="http://www.w3.org/1999/02/22-rdf-syntax-ns#"
   xmlns:svg="http://www.w3.org/2000/svg"
   xmlns="http://www.w3.org/2000/svg"
   xmlns:sodipodi="http://sodipodi.sourceforge.net/DTD/sodipodi-0.dtd"
   xmlns:inkscape="http://www.inkscape.org/namespaces/inkscape"
   width="22"
   height="22"
   viewBox="0 0 22 22"
   id="svg2"
   version="1.1"
   inkscape:version="0.92.4 5da689c313, 2019-01-14"
   sodipodi:docname="selectric-dark.svg">
  <metadata
     id="metadata11">
    <rdf:RDF>
      <cc:Work
         rdf:about="">
        <dc:format>image/svg+xml</dc:format>
        <dc:type
           rdf:resource="http://purl.org/dc/dcmitype/StillImage" />
      </cc:Work>
    </rdf:RDF>
  </metadata>
  <sodipodi:namedview
     pagecolor="#ffffff"
     bordercolor="#666666"
     borderopacity="1"
     objecttolerance="10"
     gridtolerance="10"
     guidetolerance="10"
     inkscape:pageopacity="0"
     inkscape:pageshadow="2"
     inkscape:window-width="1362"
     inkscape:window-height="733"
     id="namedview9"
     showgrid="false"
     inkscape:zoom="17.686369"
     inkscape:cx="8.5224533"
     inkscape:cy="11.392763"
     inkscape:window-x="0"
     inkscape:window-y="33"
     inkscape:window-maximized="0"
     inkscape:current-layer="svg2" />
  <defs
     id="defs4">
    <style
       type="text/css"
       id="current-color-scheme">
   .ColorScheme-Text { color:#5c616c; } .ColorScheme-Highlight { color:#5294e2; } .ColorScheme-ButtonBackground { color:#d3dae3; }
  </style>
  </defs>
  <g
     id="g2086"
     transform="matrix(0.45843825,0,0,0.45843825,-7.3584889,1.7692129)"
     style="fill:#31363b;fill-opacity:1">
    <path
       id="path944"
       d="m 49.486116,3.4894365 c 0,-0.533613 -0.432932,-0.966545 -0.966545,-0.966545 H 32.990429 c -0.533613,0 -0.966545,0.432932 -0.966545,0.966545 v 2.276412 h 17.462232 z m 0,0"
       inkscape:connector-curvature="0"
       style="fill:#31363b;fill-opacity:1;stroke-width:0.06443627" />
    <path
       id="path946"
       d="m 53.109649,20.902837 v -2.919518 c 0,-0.533864 -0.432931,-0.966544 -0.966544,-0.966544 h -4.141289 c -0.533613,0 -0.966545,0.433686 -0.966545,0.967551 0,1.182507 -0.957482,2.138227 -2.138227,2.138227 h -8.283082 c -1.179737,0 -2.139486,-0.959748 -2.139486,-2.139234 0,-0.533864 -0.432679,-0.966544 -0.966544,-0.966544 h -4.141037 c -0.533613,0 -0.966545,0.43268 -0.966545,0.966544 v 2.919769 l -4.071818,10.179925 c -0.04581,0.114022 -0.06922,0.236854 -0.06922,0.359937 0,2.24495 1.826366,4.071316 4.071315,4.071316 H 53.17937 c 2.24495,0 4.071316,-1.826366 4.071316,-4.072323 0,-0.123083 -0.02341,-0.244908 -0.06922,-0.35893 z m -8.731116,2.325495 h 1.03526 c 0.533865,0 0.966544,0.432931 0.966544,0.966543 0,0.533865 -0.432679,0.966545 -0.966544,0.966545 h -1.03526 c -0.533864,0 -0.966544,-0.43268 -0.966544,-0.966545 0,-0.533612 0.43268,-0.966543 0.966544,-0.966543 z m -1.035258,3.105778 c 0.533612,0 0.966544,0.432931 0.966544,0.966544 0,0.533865 -0.432932,0.966544 -0.966544,0.966544 h -1.03526 c -0.533864,0 -0.966545,-0.432679 -0.966545,-0.966544 0,-0.533613 0.432681,-0.966544 0.966545,-0.966544 z m -3.105779,-3.105778 h 1.035008 c 0.533864,0 0.966544,0.432931 0.966544,0.966543 0,0.533865 -0.43268,0.966545 -0.966544,0.966545 h -1.035008 c -0.533865,0 -0.966544,-0.43268 -0.966544,-0.966545 0,-0.533612 0.432679,-0.966543 0.966544,-0.966543 z m -1.035511,3.105778 c 0.533864,0 0.966544,0.432931 0.966544,0.966544 0,0.533865 -0.43268,0.966544 -0.966544,0.966544 h -1.035007 c -0.533865,0 -0.966544,-0.432679 -0.966544,-0.966544 0,-0.533613 0.432679,-0.966544 0.966544,-0.966544 z m -3.105778,-3.105778 h 1.035259 c 0.533865,0 0.966544,0.432931 0.966544,0.966543 0,0.533865 -0.432679,0.966545 -0.966544,0.966545 h -1.035259 c -0.533865,0 -0.966544,-0.43268 -0.966544,-0.966545 0,-0.533612 0.432679,-0.966543 0.966544,-0.966543 z m -4.658793,8.144896 h -1.03526 c -0.533613,0 -0.966544,-0.432931 -0.966544,-0.966545 0,-0.533864 0.432931,-0.966544 0.966544,-0.966544 h 1.03526 c 0.533864,0 0.966544,0.43268 0.966544,0.966544 0,0.533614 -0.43268,0.966545 -0.966544,0.966545 z m 0.517755,-6.211808 c -0.533864,0 -0.966545,-0.43268 -0.966545,-0.966545 0,-0.533612 0.432681,-0.966543 0.966545,-0.966543 h 1.03526 c 0.533864,0 0.966544,0.432931 0.966544,0.966543 0,0.533865 -0.43268,0.966545 -0.966544,0.966545 z m 1.103975,2.139234 c 0,-0.533613 0.432679,-0.966544 0.966544,-0.966544 h 1.035259 c 0.533865,0 0.966545,0.432931 0.966545,0.966544 0,0.533865 -0.43268,0.966544 -0.966545,0.966544 h -1.035259 c -0.533865,0 -0.966544,-0.432679 -0.966544,-0.966544 z m 13.907412,4.072574 H 34.543443 c -0.533864,0 -0.966544,-0.432931 -0.966544,-0.966545 0,-0.533864 0.43268,-0.966544 0.966544,-0.966544 h 12.423113 c 0.533865,0 0.966545,0.43268 0.966545,0.966544 0,0.533614 -0.43268,0.966545 -0.966545,0.966545 z m 0.517755,-3.10603 h -1.035258 c -0.533865,0 -0.966544,-0.432679 -0.966544,-0.966544 0,-0.533613 0.432679,-0.966544 0.966544,-0.966544 h 1.035258 c 0.533865,0 0.966545,0.432931 0.966545,0.966544 0,0.533865 -0.43268,0.966544 -0.966545,0.966544 z m 0.06872,-4.072323 c 0,-0.533612 0.432679,-0.966543 0.966544,-0.966543 h 1.03526 c 0.533864,0 0.966544,0.432931 0.966544,0.966543 0,0.533865 -0.43268,0.966545 -0.966544,0.966545 h -1.03526 c -0.533865,0 -0.966544,-0.43268 -0.966544,-0.966545 z m 3.554819,7.178353 h -1.03526 c -0.533864,0 -0.966544,-0.432931 -0.966544,-0.966545 0,-0.533864 0.43268,-0.966544 0.966544,-0.966544 h 1.035008 c 0.533865,0 0.966544,0.43268 0.966544,0.966544 0,0.533614 -0.432679,0.966545 -0.966292,0.966545 z m 0,0"
       inkscape:connector-curvature="0"
       style="fill:#31363b;fill-opacity:1;stroke-width:0.06443627" />
    <path
       id="path948"
       d="m 36.407565,17.983319 c 0,0.111757 0.09439,0.206146 0.206397,0.206146 h 8.283082 c 0.113267,0 0.205139,-0.09212 0.205139,-0.205139 0,-1.599328 1.300807,-2.900639 2.899633,-2.900639 h 3.554818 V 8.6659845 c 0,-0.533865 -0.43268,-0.966544 -0.966544,-0.966544 H 30.91991 c -0.533865,0 -0.966545,0.432679 -0.966545,0.966544 v 6.4177025 h 3.554819 c 1.598826,0 2.899381,1.300556 2.899381,2.899632 z m 0.723901,-6.765809 h 7.247067 c 0.533865,0 0.966545,0.43268 0.966545,0.966544 0,0.533865 -0.43268,0.966544 -0.966545,0.966544 h -7.247067 c -0.533613,0 -0.966544,-0.432679 -0.966544,-0.966544 0,-0.533864 0.43268,-0.966544 0.966544,-0.966544 z m 0,0"
       inkscape:connector-curvature="0"
       style="fill:#31363b;fill-opacity:1;stroke-width:0.06443627" />
    <path
       id="path950"
       d="m 25.363539,19.467619 c 0.609628,0 1.103975,-0.494348 1.103975,-1.104226 v -1.933341 c 0,-1.112784 0.630267,-2.081845 1.553015,-2.567131 V 12.35773 H 26.46399 c -0.03574,-0.577409 -0.51398,-1.035007 -1.100451,-1.035007 -0.609879,0 -1.104226,0.494347 -1.104226,1.103974 v 5.936696 c 0,0.609878 0.494347,1.104226 1.104226,1.104226 z m 0,0"
       inkscape:connector-curvature="0"
       style="fill:#31363b;fill-opacity:1;stroke-width:0.06443627" />
    <path
       id="path952"
       d="m 56.284142,8.2169445 c -0.533864,0 -0.966544,0.43268 -0.966544,0.966544 V 12.35773 h -1.828127 v 1.505191 c 0.922747,0.485286 1.553015,1.454347 1.553015,2.567131 v 2.002056 h 1.241656 c 0.533614,0 0.966545,-0.432931 0.966545,-0.966544 V 9.1834885 c 0,-0.533864 -0.43268,-0.966544 -0.966545,-0.966544 z m 0,0"
       inkscape:connector-curvature="0"
       style="fill:#31363b;fill-opacity:1;stroke-width:0.06443627" />
  </g>
</svg>
