<?xml version="1.0" encoding="UTF-8" standalone="no"?>
<svg
   xmlns:dc="http://purl.org/dc/elements/1.1/"
   xmlns:cc="http://creativecommons.org/ns#"
   xmlns:rdf="http://www.w3.org/1999/02/22-rdf-syntax-ns#"
   xmlns:svg="http://www.w3.org/2000/svg"
   xmlns="http://www.w3.org/2000/svg"
   xmlns:sodipodi="http://sodipodi.sourceforge.net/DTD/sodipodi-0.dtd"
   xmlns:inkscape="http://www.inkscape.org/namespaces/inkscape"
   width="22"
   height="22"
   viewBox="0 0 22 22"
   id="svg2"
   version="1.1"
   inkscape:version="0.92.4 5da689c313, 2019-01-14"
   sodipodi:docname="translation-light.svg">
  <metadata
     id="metadata11">
    <rdf:RDF>
      <cc:Work
         rdf:about="">
        <dc:format>image/svg+xml</dc:format>
        <dc:type
           rdf:resource="http://purl.org/dc/dcmitype/StillImage" />
        <dc:title></dc:title>
      </cc:Work>
    </rdf:RDF>
  </metadata>
  <sodipodi:namedview
     pagecolor="#ffffff"
     bordercolor="#666666"
     borderopacity="1"
     objecttolerance="10"
     gridtolerance="10"
     guidetolerance="10"
     inkscape:pageopacity="0"
     inkscape:pageshadow="2"
     inkscape:window-width="1916"
     inkscape:window-height="1045"
     id="namedview9"
     showgrid="false"
     inkscape:zoom="34.183175"
     inkscape:cx="17.356339"
     inkscape:cy="8.2966102"
     inkscape:window-x="0"
     inkscape:window-y="33"
     inkscape:window-maximized="0"
     inkscape:current-layer="svg2" />
  <defs
     id="defs4">
    <style
       type="text/css"
       id="current-color-scheme">
   .ColorScheme-Text { color:#5c616c; } .ColorScheme-Highlight { color:#5294e2; } .ColorScheme-ButtonBackground { color:#d3dae3; }
  </style>
  </defs>
  <g
     id="g99"
     transform="matrix(0.02714515,0,0,0.02714515,4.0508416,4.0508416)"
     style="fill:#f8f8f8;fill-opacity:1">
    <g
       id="g6"
       style="fill:#f8f8f8;fill-opacity:1">
      <g
         id="g4"
         style="fill:#f8f8f8;fill-opacity:1">
        <polygon
           id="polygon2"
           points="150.707,197 138.71,137 132.29,137 120.293,197 "
           style="fill:#f8f8f8;fill-opacity:1" />
      </g>
    </g>
    <g
       id="g12"
       style="fill:#f8f8f8;fill-opacity:1">
      <g
         id="g10"
         style="fill:#f8f8f8;fill-opacity:1">
        <path
           inkscape:connector-curvature="0"
           id="path8"
           d="m 381.374,257 c 6.477,17.399 15.092,31.483 24.626,43.467 9.534,-11.984 19.149,-26.069 25.626,-43.467 z"
           style="fill:#f8f8f8;fill-opacity:1" />
      </g>
    </g>
    <g
       id="g18"
       style="fill:#f8f8f8;fill-opacity:1">
      <g
         id="g16"
         style="fill:#f8f8f8;fill-opacity:1">
        <path
           inkscape:connector-curvature="0"
           id="path14"
           d="M 467,91 H 280.717 l 38.842,311.679 c 0.687,12.748 -2.798,24.75 -11.118,34.146 L 242.663,512 H 467 c 24.814,0 45,-20.186 45,-45 V 137 c 0,-24.814 -20.186,-46 -45,-46 z m 0,166 h -4.006 c -8.535,27.383 -22.07,48.81 -36.136,65.702 11.019,10.074 22.802,18.338 34.517,27.594 6.46,5.171 7.515,14.604 2.329,21.079 -5.162,6.465 -14.632,7.513 -21.079,2.329 -12.729,-10.047 -24.677,-18.457 -36.625,-29.421 -11.948,10.964 -22.896,19.374 -35.625,29.421 -6.447,5.184 -15.917,4.136 -21.079,-2.329 -5.186,-6.475 -4.131,-15.908 2.329,-21.079 11.715,-9.256 22.498,-17.52 33.517,-27.594 C 371.076,305.811 358.54,284.384 350.006,257 H 346 c -8.291,0 -15,-6.709 -15,-15 0,-8.291 6.709,-15 15,-15 h 45 v -15 c 0,-8.291 6.709,-15 15,-15 8.291,0 15,6.709 15,15 v 15 h 46 c 8.291,0 15,6.709 15,15 0,8.291 -6.709,15 -15,15 z"
           style="fill:#f8f8f8;fill-opacity:1" />
      </g>
    </g>
    <g
       id="g24"
       style="fill:#f8f8f8;fill-opacity:1">
      <g
         id="g22"
         style="fill:#f8f8f8;fill-opacity:1">
        <path
           inkscape:connector-curvature="0"
           id="path20"
           d="M 244.164,39.419 C 241.366,16.948 222.162,0 199.516,0 H 45 C 20.186,0 0,20.186 0,45 v 332 c 0,24.814 20.186,45 45,45 89.67,0 154.177,0 236.551,0 4.376,-5.002 8.044,-8.134 8.199,-14.663 C 289.788,405.7 244.367,41.043 244.164,39.419 Z m -60.22,247.288 c -7.954,1.637 -16.011,-3.527 -17.651,-11.763 L 156.706,227 h -42.411 l -9.587,47.944 c -1.611,8.115 -9.434,13.447 -17.651,11.763 -8.115,-1.626 -13.389,-9.521 -11.763,-17.651 l 29.999,-150 C 106.699,112.054 112.852,107 120,107 h 31 c 7.148,0 13.301,5.054 14.707,12.056 l 30,150 c 1.626,8.13 -3.647,16.025 -11.763,17.651 z"
           style="fill:#f8f8f8;fill-opacity:1" />
      </g>
    </g>
    <g
       id="g30"
       style="fill:#f8f8f8;fill-opacity:1">
      <g
         id="g28"
         style="fill:#f8f8f8;fill-opacity:1">
        <path
           inkscape:connector-curvature="0"
           id="path26"
           d="m 175.261,452 2.574,20.581 c 1.716,13.783 10.874,27.838 25.938,34.856 28.428,-31.294 11.229,-12.362 50.359,-55.437 z"
           style="fill:#f8f8f8;fill-opacity:1" />
      </g>
    </g>
    <g
       id="g32"
       style="fill:#f8f8f8;fill-opacity:1" />
    <g
       id="g34"
       style="fill:#f8f8f8;fill-opacity:1" />
    <g
       id="g36"
       style="fill:#f8f8f8;fill-opacity:1" />
    <g
       id="g38"
       style="fill:#f8f8f8;fill-opacity:1" />
    <g
       id="g40"
       style="fill:#f8f8f8;fill-opacity:1" />
    <g
       id="g42"
       style="fill:#f8f8f8;fill-opacity:1" />
    <g
       id="g44"
       style="fill:#f8f8f8;fill-opacity:1" />
    <g
       id="g46"
       style="fill:#f8f8f8;fill-opacity:1" />
    <g
       id="g48"
       style="fill:#f8f8f8;fill-opacity:1" />
    <g
       id="g50"
       style="fill:#f8f8f8;fill-opacity:1" />
    <g
       id="g52"
       style="fill:#f8f8f8;fill-opacity:1" />
    <g
       id="g54"
       style="fill:#f8f8f8;fill-opacity:1" />
    <g
       id="g56"
       style="fill:#f8f8f8;fill-opacity:1" />
    <g
       id="g58"
       style="fill:#f8f8f8;fill-opacity:1" />
    <g
       id="g60"
       style="fill:#f8f8f8;fill-opacity:1" />
  </g>
</svg>
